<svg width="17" height="17" viewBox="0 0 17 17" fill="none" xmlns="http://www.w3.org/2000/svg">
<path id="Vector" d="M10.9444 17C10.116 17 9.44444 16.3284 9.44444 15.5V10.9444C9.44444 10.116 10.116 9.44444 10.9444 9.44444H15.5C16.3284 9.44444 17 10.116 17 10.9444V15.5C17 16.3284 16.3284 17 15.5 17H10.9444ZM10.9444 7.55556C10.116 7.55556 9.44444 6.88398 9.44444 6.05556V1.5C9.44444 0.671572 10.116 0 10.9444 0H15.5C16.3284 0 17 0.671573 17 1.5V6.05556C17 6.88398 16.3284 7.55556 15.5 7.55556H10.9444ZM1.5 7.55556C0.671572 7.55556 0 6.88398 0 6.05556V1.5C0 0.671572 0.671573 0 1.5 0H6.05556C6.88398 0 7.55556 0.671573 7.55556 1.5V6.05556C7.55556 6.88398 6.88398 7.55556 6.05556 7.55556H1.5ZM1.5 17C0.671572 17 0 16.3284 0 15.5V10.9444C0 10.116 0.671573 9.44444 1.5 9.44444H6.05556C6.88398 9.44444 7.55556 10.116 7.55556 10.9444V15.5C7.55556 16.3284 6.88398 17 6.05556 17H1.5Z" fill="#FFFFFF"/>
</svg>
