<svg width="7" height="13" viewBox="0 0 7 13" fill="none" xmlns="http://www.w3.org/2000/svg">
<path id="Vector" d="M5.61291 12.7427L0.177429 6.98021C0.112913 6.91161 0.0671067 6.83729 0.04001 6.75726C0.0129133 6.67722 -0.000420026 6.59147 1.00806e-05 6.5C1.00806e-05 6.40853 0.0135584 6.32278 0.0406552 6.24274C0.0677519 6.16271 0.113343 6.08839 0.177429 6.01979L5.61291 0.240105C5.76344 0.0800351 5.95161 0 6.17742 0C6.40323 0 6.59677 0.085752 6.75807 0.257256C6.91936 0.42876 7 0.628848 7 0.85752C7 1.08619 6.91936 1.28628 6.75807 1.45778L2.01614 6.5L6.75807 11.5422C6.9086 11.7023 6.98387 11.8996 6.98387 12.1342C6.98387 12.3689 6.90323 12.5717 6.74194 12.7427C6.58065 12.9142 6.39247 13 6.17742 13C5.96237 13 5.7742 12.9142 5.61291 12.7427Z" fill="#3C4563"/>
</svg>
