<svg width="8" height="13" viewBox="0 0 8 13" fill="none" xmlns="http://www.w3.org/2000/svg">
<path d="M7.14307 6.25C7.14307 6.43001 7.07733 6.58842 6.93857 6.72523L1.14686 12.3056C1.0227 12.4352 0.862026 12.5 0.672134 12.5C0.29235 12.5 0.000209332 12.2192 0.000209332 11.8448C0.000209332 11.6575 0.0805478 11.4991 0.197404 11.3767L5.51438 6.25L0.197404 1.12327C0.0805478 1.00086 0.000209332 0.835253 0.000209332 0.655242C0.000209332 0.280818 0.29235 0 0.672134 0C0.862026 0 1.0227 0.0648041 1.14686 0.187212L6.93857 5.77477C7.07733 5.90438 7.14307 6.06999 7.14307 6.25Z" fill="#F20530"/>
</svg>
