<svg width="7" height="13" viewBox="0 0 7 13" fill="none" xmlns="http://www.w3.org/2000/svg">
<path id="Vector" d="M1.3871 0.257256L6.82257 6.01979C6.88709 6.08839 6.93289 6.16271 6.95999 6.24274C6.98709 6.32278 7.00042 6.40853 6.99999 6.5C6.99999 6.59147 6.98644 6.67722 6.95935 6.75726C6.93225 6.83729 6.88666 6.91161 6.82257 6.98021L1.38709 12.7599C1.23656 12.92 1.04839 13 0.822579 13C0.596773 13 0.403225 12.9142 0.241935 12.7427C0.0806449 12.5712 -1.26227e-07 12.3712 -1.06236e-07 12.1425C-8.62452e-08 11.9138 0.080645 11.7137 0.241935 11.5422L4.98386 6.5L0.241936 1.45778C0.0913986 1.29771 0.0161296 1.10037 0.0161296 0.865752C0.0161297 0.631135 0.0967747 0.428302 0.258065 0.257256C0.419355 0.0857518 0.607527 -2.03068e-07 0.82258 -1.84267e-07C1.03763 -1.65467e-07 1.22581 0.0857518 1.3871 0.257256Z" fill="white"/>
</svg>
