<svg width="48" height="48" viewBox="0 0 48 48" fill="none" xmlns="http://www.w3.org/2000/svg">
<path d="M22.9561 26.8199L22.9561 26.8198L22.9517 26.8173C22.32 26.4505 21.95 25.7765 21.95 25.056V13.728C21.95 12.9613 22.5613 12.35 23.328 12.35H23.472C24.2387 12.35 24.85 12.9613 24.85 13.728V24.624V24.8231L25.0212 24.9249L34.3092 30.4449L34.3092 30.4449L34.3138 30.4476C34.4714 30.538 34.6092 30.6592 34.7189 30.804C34.8287 30.9488 34.9082 31.1143 34.9527 31.2904C34.9971 31.4666 35.0057 31.6499 34.9779 31.8295C34.95 32.009 34.8863 32.1811 34.7906 32.3355L34.7905 32.3355L34.7863 32.3425C34.4107 32.9811 33.5745 33.1824 32.9146 32.795C32.9142 32.7948 32.9138 32.7945 32.9135 32.7943L22.9561 26.8199ZM0.35 24C0.35 10.9448 10.9218 0.35 23.976 0.35C37.0549 0.35 47.65 10.9455 47.65 24C47.65 37.0545 37.0549 47.65 23.976 47.65C10.9218 47.65 0.35 37.0552 0.35 24ZM4.45 24C4.45 34.8013 13.1987 43.55 24 43.55C34.8013 43.55 43.55 34.8013 43.55 24C43.55 13.1987 34.8013 4.45 24 4.45C13.1987 4.45 4.45 13.1987 4.45 24Z" fill="#F20530" stroke="#F5F6F6" stroke-width="0.7"/>
</svg>
