<svg width="17" height="17" viewBox="0 0 17 17" fill="none" xmlns="http://www.w3.org/2000/svg">
<path d="M1.0625 8.5C1.0625 6.52745 1.84609 4.6357 3.24089 3.24089C4.63569 1.84609 6.52745 1.0625 8.5 1.0625C10.4725 1.0625 12.3643 1.84609 13.7591 3.24089C15.1539 4.6357 15.9375 6.52745 15.9375 8.5C15.9375 10.4725 15.1539 12.3643 13.7591 13.7591C12.3643 15.1539 10.4725 15.9375 8.5 15.9375C6.52745 15.9375 4.63569 15.1539 3.24089 13.7591C1.84609 12.3643 1.0625 10.4725 1.0625 8.5ZM17 8.5C17 6.24566 16.1045 4.08365 14.5104 2.48959C12.9163 0.895533 10.7543 0 8.5 0C6.24566 0 4.08365 0.895533 2.48959 2.48959C0.895533 4.08365 0 6.24566 0 8.5C0 10.7543 0.895533 12.9163 2.48959 14.5104C4.08365 16.1045 6.24566 17 8.5 17C10.7543 17 12.9163 16.1045 14.5104 14.5104C16.1045 12.9163 17 10.7543 17 8.5ZM8.65512 11.696C7.36737 11.696 6.60769 10.7185 6.60769 9.03762V7.91138C6.60769 6.24219 7.35462 5.2955 8.65512 5.2955C9.69531 5.2955 10.3987 5.91813 10.4922 6.80213H11.8681V6.70331C11.7619 5.16481 10.4295 4.08212 8.64875 4.08212C6.42706 4.08212 5.17544 5.50163 5.17544 7.91031V9.05037C5.17544 11.4527 6.4515 12.9158 8.64981 12.9158C10.4359 12.9158 11.7683 11.7959 11.8681 10.183V10.0895H10.4922C10.3987 11.0234 9.67619 11.696 8.65512 11.696Z" fill="#333333"/>
</svg>
