<svg width="18" height="22" viewBox="0 0 18 22" fill="none" xmlns="http://www.w3.org/2000/svg">
<g id="Group 224">
<path id="Vector" d="M3.89886 3.63785C4.00771 2.89713 4.1155 2.16597 4.22276 1.4348C4.26259 1.16453 4.29338 0.892668 4.33958 0.62346C4.40967 0.213009 4.77552 -0.0567306 5.15836 0.0101734C5.5481 0.0781393 5.80297 0.440801 5.74297 0.851252C5.63093 1.61905 5.51465 2.38633 5.40261 3.15413C5.3888 3.24705 5.38933 3.34263 5.38084 3.47219C5.89324 3.41643 6.38015 3.35378 6.86865 3.31236C7.51592 3.25714 8.15841 3.09094 8.81471 3.22794C9.40676 3.35112 9.93137 3.60069 10.3631 4.03238C12.6962 6.36711 15.0315 8.69972 17.3625 11.0366C18.2121 11.8883 18.2126 13.2019 17.3635 14.0531C15.2009 16.2211 13.0355 18.387 10.8686 20.5507C10.036 21.3823 8.77754 21.4173 7.91257 20.6198C7.41982 20.1653 6.9568 19.6789 6.48263 19.2052C4.71021 17.4333 2.96008 15.6381 1.15792 13.8965C0.194719 12.9656 -0.137677 11.9063 0.0502914 10.5969C0.268526 9.07885 0.414015 7.54961 0.566939 6.0225C0.689596 4.79699 1.60395 3.86883 2.83424 3.75998C3.18416 3.72918 3.53248 3.68086 3.89939 3.63839L3.89886 3.63785ZM5.15464 4.92124C5.24278 4.91593 5.29429 4.91487 5.34473 4.90903C6.21236 4.81186 7.07945 4.71681 7.94655 4.6154C8.55665 4.54424 9.06427 4.72212 9.50286 5.16337C11.7431 7.41633 13.9929 9.65974 16.2384 11.9074C16.6998 12.3694 16.6998 12.7156 16.24 13.1754C14.1564 15.26 12.0728 17.3447 9.98871 19.4293C9.52463 19.8934 9.18427 19.8945 8.72338 19.4336C6.47095 17.1806 4.2217 14.9244 1.96396 12.6763C1.53758 12.252 1.35704 11.7619 1.42395 11.1693C1.61776 9.4516 1.80785 7.73333 2.00113 6.01613C2.05157 5.56798 2.37919 5.24514 2.83105 5.18939C3.11725 5.15381 3.40345 5.11877 3.69125 5.08372C3.7247 4.84213 3.75443 4.62655 3.79054 4.36955C3.38859 4.41521 3.01318 4.44707 2.64202 4.5023C1.98413 4.6 1.38625 5.20691 1.30925 5.86852C1.11067 7.57669 0.931725 9.28752 0.728889 10.9952C0.631188 11.8177 0.820749 12.5334 1.4128 13.126C3.70187 15.4172 5.99147 17.7084 8.28266 19.998C8.93046 20.6453 9.76889 20.6527 10.4167 20.0065C12.5539 17.8751 14.6874 15.74 16.8182 13.6023C17.448 12.9704 17.465 12.1362 16.8384 11.5054C14.5302 9.18292 12.2135 6.86942 9.89526 4.55752C9.42215 4.086 8.82958 3.84281 8.1701 3.88901C7.24778 3.95379 6.32917 4.08229 5.41057 4.19273C5.34685 4.20017 5.25606 4.27663 5.24119 4.3361C5.19712 4.51398 5.18544 4.70035 5.1557 4.92071L5.15464 4.92124ZM9.23631 15.8351C9.26286 15.8563 9.28994 15.8776 9.31649 15.8988C9.48003 15.7156 9.63349 15.5218 9.81083 15.3535C9.93721 15.2335 9.95739 15.1193 9.92234 14.9552C9.5703 13.3092 9.22569 11.6616 8.8779 10.0144C8.75524 9.43301 8.6294 8.85265 8.49134 8.20962C8.3055 8.40184 8.17594 8.57335 8.0108 8.69813C7.78991 8.86539 7.79097 9.0523 7.8446 9.29549C8.11169 10.5088 8.3639 11.7258 8.62143 12.9412C8.82586 13.906 9.03135 14.8703 9.23631 15.8346V15.8351ZM9.72853 11.6207C9.72694 12.2462 9.97809 12.6407 10.3434 12.9678C11.1256 13.6687 12.1583 13.4648 12.6341 12.5255C12.9569 11.8877 12.7493 11.1481 12.093 10.6075C11.6698 10.2592 11.1999 10.0872 10.6779 10.3468C10.1151 10.6267 9.76199 11.0738 9.72906 11.6201L9.72853 11.6207ZM8.03682 12.3587C7.96673 11.6541 7.56 11.1656 6.93503 10.847C6.51555 10.6336 6.0966 10.6867 5.71058 10.9484C4.72401 11.6169 4.72083 12.817 5.70208 13.5588C6.15236 13.8996 6.64246 14.0074 7.15751 13.7313C7.68902 13.4462 8.00124 13.0012 8.03682 12.3587ZM4.96242 6.19773C4.90614 6.58535 4.85516 6.94217 4.8026 7.29899C4.73675 7.74236 4.39746 8.03652 4.01515 7.98343C3.57231 7.92183 3.32381 7.55174 3.39868 7.07438C3.45443 6.72022 3.50116 6.36499 3.55425 5.99648C2.97442 6.18551 2.63353 6.76322 2.68291 7.43333C2.72751 8.03865 3.24681 8.58503 3.86807 8.68061C4.50737 8.77831 5.14136 8.4252 5.3904 7.83263C5.6373 7.24589 5.4727 6.57579 4.96242 6.19826V6.19773Z" fill="#F20530"/>
<path id="Vector_2" d="M11.062 11.0773C11.4406 11.0863 11.9864 11.6162 12.0066 11.9938C12.0273 12.3841 11.5993 12.6867 11.2372 12.5232C10.9213 12.3803 10.6866 12.1377 10.5549 11.8164C10.4094 11.4617 10.6882 11.0683 11.062 11.0773Z" fill="#F20530"/>
<path id="Vector_3" d="M5.76318 12.0645C5.78813 11.7002 6.17628 11.4538 6.51133 11.6046C6.83629 11.7507 7.07577 11.996 7.20905 12.3273C7.3402 12.6533 7.08692 13.0325 6.73859 13.0532C6.3308 13.0776 5.73503 12.4733 5.76264 12.0645H5.76318Z" fill="#F20530"/>
</g>
</svg>
