<svg width="21" height="21" viewBox="0 0 21 21" fill="#666666" xmlns="http://www.w3.org/2000/svg">
<rect width="21" height="21" rx="6" fill="current"/>
<path d="M15.75 6.375C15.75 6.99632 15.2463 7.5 14.625 7.5C14.0037 7.5 13.5 6.99632 13.5 6.375C13.5 5.75368 14.0037 5.25 14.625 5.25C15.2463 5.25 15.75 5.75368 15.75 6.375Z" fill="white"/>
<path fill-rule="evenodd" clip-rule="evenodd" d="M10.5 14.25C12.5711 14.25 14.25 12.5711 14.25 10.5C14.25 8.42893 12.5711 6.75 10.5 6.75C8.42893 6.75 6.75 8.42893 6.75 10.5C6.75 12.5711 8.42893 14.25 10.5 14.25ZM10.5 12.75C11.7426 12.75 12.75 11.7426 12.75 10.5C12.75 9.25736 11.7426 8.25 10.5 8.25C9.25736 8.25 8.25 9.25736 8.25 10.5C8.25 11.7426 9.25736 12.75 10.5 12.75Z" fill="white"/>
<path fill-rule="evenodd" clip-rule="evenodd" d="M3 10.2C3 7.67976 3 6.41965 3.49047 5.45704C3.9219 4.61031 4.61031 3.9219 5.45704 3.49047C6.41965 3 7.67976 3 10.2 3H10.8C13.3202 3 14.5804 3 15.543 3.49047C16.3897 3.9219 17.0781 4.61031 17.5095 5.45704C18 6.41965 18 7.67976 18 10.2V10.8C18 13.3202 18 14.5804 17.5095 15.543C17.0781 16.3897 16.3897 17.0781 15.543 17.5095C14.5804 18 13.3202 18 10.8 18H10.2C7.67976 18 6.41965 18 5.45704 17.5095C4.61031 17.0781 3.9219 16.3897 3.49047 15.543C3 14.5804 3 13.3202 3 10.8V10.2ZM10.2 4.5H10.8C12.0849 4.5 12.9583 4.50117 13.6334 4.55633C14.2911 4.61006 14.6274 4.70745 14.862 4.82698C15.4265 5.1146 15.8854 5.57354 16.173 6.13803C16.2926 6.37263 16.3899 6.70893 16.4437 7.36656C16.4988 8.04169 16.5 8.91513 16.5 10.2V10.8C16.5 12.0849 16.4988 12.9583 16.4437 13.6334C16.3899 14.2911 16.2926 14.6274 16.173 14.862C15.8854 15.4265 15.4265 15.8854 14.862 16.173C14.6274 16.2926 14.2911 16.3899 13.6334 16.4437C12.9583 16.4988 12.0849 16.5 10.8 16.5H10.2C8.91513 16.5 8.04169 16.4988 7.36656 16.4437C6.70893 16.3899 6.37263 16.2926 6.13803 16.173C5.57354 15.8854 5.1146 15.4265 4.82698 14.862C4.70745 14.6274 4.61006 14.2911 4.55633 13.6334C4.50117 12.9583 4.5 12.0849 4.5 10.8V10.2C4.5 8.91513 4.50117 8.04169 4.55633 7.36656C4.61006 6.70893 4.70745 6.37263 4.82698 6.13803C5.1146 5.57354 5.57354 5.1146 6.13803 4.82698C6.37263 4.70745 6.70893 4.61006 7.36656 4.55633C8.04169 4.50117 8.91513 4.5 10.2 4.5Z" fill="white"/>
</svg>
