<svg width="44" height="55" viewBox="0 0 44 55" fill="none" xmlns="http://www.w3.org/2000/svg">
<path d="M22.0159 54.9999C21.267 55.0035 20.5278 54.8325 19.8578 54.5006C19.1879 54.1688 18.6059 53.6854 18.1587 53.0895L4.05411 34.4495C1.72038 31.1847 0.336571 27.346 0.0540242 23.3534C-0.228522 19.3609 0.601076 15.3681 2.45209 11.8118C4.3031 8.25547 7.10424 5.27259 10.5492 3.18937C13.9941 1.10614 17.9501 0.00280095 21.9846 5.32585e-06C26.0191 -0.0027903 29.9767 1.09507 33.4246 3.17352C36.8724 5.25197 39.6778 8.23096 41.5338 11.7847C43.3898 15.3384 44.225 19.3301 43.9481 23.323C43.6712 27.316 42.2928 31.1565 39.9637 34.4246L25.8757 53.084C25.4286 53.681 24.8464 54.1654 24.1759 54.4982C23.5055 54.831 22.7655 55.0029 22.0159 54.9999ZM21.9936 2.83728C17.2832 2.82261 12.7356 4.54616 9.23501 7.67284C5.72459 10.7824 3.48729 15.0624 2.94785 19.7003C2.40841 24.3382 3.60439 29.0112 6.30873 32.8321L20.3855 51.4306C20.5742 51.6821 20.8198 51.8861 21.1025 52.0263C21.3852 52.1666 21.697 52.239 22.0131 52.2379C22.3298 52.2384 22.6422 52.1657 22.9257 52.0255C23.2091 51.8854 23.4558 51.6817 23.6462 51.4306L37.7035 32.8128C39.6214 30.1203 40.8004 26.9791 41.1244 23.6979C41.4485 20.4166 40.9065 17.1082 39.5518 14.0976C38.1971 11.087 36.0761 8.47783 33.3974 6.52639C30.7187 4.57496 27.5744 3.3484 24.2733 2.96722C23.5164 2.88147 22.7553 2.83809 21.9936 2.83728Z" fill="#F20530"/>
<path d="M22.0001 29.0716C20.6015 29.0716 19.2344 28.6568 18.0715 27.8798C16.9086 27.1028 16.0022 25.9984 15.467 24.7063C14.9318 23.4141 14.7917 21.9923 15.0646 20.6206C15.3374 19.2489 16.0109 17.9888 16.9999 16.9999C17.9888 16.0109 19.2489 15.3374 20.6206 15.0646C21.9923 14.7917 23.4141 14.9318 24.7063 15.467C25.9984 16.0022 27.1028 16.9086 27.8798 18.0715C28.6568 19.2344 29.0716 20.6015 29.0716 22.0001C29.0716 23.8756 28.3265 25.6742 27.0004 27.0004C25.6742 28.3265 23.8756 29.0716 22.0001 29.0716ZM22.0001 17.7573C21.161 17.7573 20.3407 18.0061 19.6429 18.4723C18.9452 18.9385 18.4014 19.6012 18.0803 20.3765C17.7591 21.1518 17.6751 22.0048 17.8388 22.8279C18.0025 23.6509 18.4066 24.4069 19 25.0003C19.5934 25.5937 20.3494 25.9978 21.1724 26.1615C21.9954 26.3252 22.8485 26.2412 23.6238 25.92C24.3991 25.5989 25.0617 25.0551 25.5279 24.3573C25.9942 23.6596 26.243 22.8393 26.243 22.0001C26.243 20.8749 25.796 19.7957 25.0003 19C24.2046 18.2043 23.1254 17.7573 22.0001 17.7573Z" fill="#F20530"/>
</svg>
