<svg width="12" height="14" viewBox="0 0 12 14" fill="none" xmlns="http://www.w3.org/2000/svg">
<path id="Vector" d="M11.0328 6.33143C10.7295 5.6487 10.2885 5.03592 9.7375 4.53143L9.28281 4.11424C9.26737 4.10046 9.24879 4.09069 9.22869 4.08577C9.2086 4.08085 9.1876 4.08094 9.16754 4.08603C9.14749 4.09112 9.12899 4.10106 9.11367 4.11497C9.09835 4.12887 9.08668 4.14633 9.07969 4.1658L8.87656 4.74861C8.75 5.11424 8.51719 5.48768 8.1875 5.85486C8.16563 5.8783 8.14063 5.88455 8.12344 5.88611C8.10625 5.88768 8.07969 5.88455 8.05625 5.86268C8.03437 5.84393 8.02344 5.8158 8.025 5.78768C8.08281 4.84705 7.80156 3.78611 7.18594 2.63143C6.67656 1.67205 5.96875 0.923614 5.08437 0.401739L4.43906 0.0220518C4.35469 -0.0279482 4.24688 0.0376767 4.25156 0.136114L4.28594 0.886114C4.30937 1.39861 4.25 1.85174 4.10938 2.2283C3.9375 2.68924 3.69063 3.11736 3.375 3.50174C3.15535 3.76887 2.90639 4.01049 2.63281 4.22205C1.97391 4.72856 1.43815 5.37757 1.06562 6.12049C0.694022 6.86989 0.500453 7.69496 0.5 8.53143C0.5 9.26893 0.645312 9.98299 0.932812 10.6564C1.21042 11.3048 1.61103 11.8933 2.1125 12.3892C2.61875 12.8892 3.20625 13.283 3.86094 13.5564C4.53906 13.8408 5.25781 13.9846 6 13.9846C6.74219 13.9846 7.46094 13.8408 8.13906 13.558C8.79214 13.2862 9.38601 12.8897 9.8875 12.3908C10.3937 11.8908 10.7906 11.3064 11.0672 10.658C11.3543 9.98639 11.5015 9.26336 11.5 8.53299C11.5 7.77049 11.3437 7.02986 11.0328 6.33143V6.33143Z" fill="#7E7E7E"/>
</svg>
