<svg width="44" height="44" viewBox="0 0 44 44" fill="none" xmlns="http://www.w3.org/2000/svg">
<path d="M26.984 2.79327C27.0296 2.62222 27.1085 2.46184 27.2161 2.32129C27.3238 2.18075 27.458 2.0628 27.6113 1.97419C27.7645 1.88557 27.9337 1.82804 28.1092 1.80487C28.2847 1.7817 28.4631 1.79335 28.6341 1.83915C31.8874 2.6878 34.8556 4.38847 37.2331 6.76595C39.6105 9.14344 41.3111 12.1118 42.1597 15.3652C42.2055 15.5362 42.2172 15.7145 42.194 15.89C42.1709 16.0655 42.1133 16.2347 42.0247 16.388C41.9361 16.5412 41.8182 16.6755 41.6776 16.7831C41.5371 16.8908 41.3767 16.9697 41.2057 17.0153C41.0921 17.0455 40.9751 17.0606 40.8577 17.0602C40.5609 17.0603 40.2724 16.9625 40.0369 16.7818C39.8015 16.6012 39.6323 16.3478 39.5556 16.0611C38.8271 13.2666 37.3665 10.7168 35.3244 8.67468C33.2823 6.63255 30.7326 5.17193 27.9381 4.44333C27.7671 4.39773 27.6067 4.31886 27.4662 4.21123C27.3256 4.1036 27.2077 3.96932 27.1191 3.81607C27.0305 3.66282 26.9729 3.49361 26.9498 3.31811C26.9266 3.14261 26.9382 2.96426 26.984 2.79327ZM26.1422 11.6273C29.4086 12.4983 31.5008 14.5907 32.3719 17.8571C32.4485 18.1438 32.6177 18.3972 32.8532 18.5778C33.0886 18.7585 33.3772 18.8563 33.6739 18.8561C33.7914 18.8566 33.9084 18.8415 34.0219 18.8112C34.1929 18.7656 34.3533 18.6868 34.4938 18.5791C34.6344 18.4715 34.7523 18.3372 34.8409 18.184C34.9296 18.0307 34.9871 17.8615 35.0103 17.686C35.0334 17.5105 35.0218 17.3322 34.976 17.1612C33.8535 12.9608 31.0384 10.1456 26.8381 9.0231C26.6671 8.97741 26.4888 8.96584 26.3134 8.98906C26.1379 9.01228 25.9687 9.06983 25.8155 9.15843C25.5061 9.33736 25.2804 9.63189 25.1881 9.97722C25.0958 10.3226 25.1445 10.6904 25.3234 10.9999C25.5023 11.3093 25.7969 11.535 26.1422 11.6273ZM43.9759 33.4036C43.5913 36.3384 42.1511 39.0326 39.9246 40.9827C37.6982 42.9329 34.8377 44.0054 31.878 44C14.3002 44 2.23868e-05 29.6994 2.23868e-05 12.1212C-0.00564775 9.16239 1.06596 6.30271 3.01467 4.07632C4.96338 1.84993 7.65592 0.409097 10.5893 0.0229582C11.2646 -0.0591059 11.9483 0.0801354 12.5377 0.419771C13.1271 0.759406 13.5903 1.2811 13.858 1.9065L18.5947 12.4804C18.8039 12.9591 18.8904 13.4824 18.8465 14.0029C18.8026 14.5234 18.6297 15.0248 18.3433 15.4617C18.3144 15.5062 18.2829 15.5489 18.249 15.5897L13.519 21.2156C13.4903 21.2739 13.4753 21.3381 13.4753 21.4031C13.4753 21.4681 13.4903 21.5322 13.519 21.5905C15.2386 25.1107 18.9292 28.7745 22.4987 30.4919C22.5583 30.5191 22.6234 30.532 22.6888 30.5297C22.7543 30.5273 22.8183 30.5098 22.8758 30.4784L28.4185 25.764C28.4581 25.7295 28.5001 25.698 28.5443 25.6697C28.9792 25.3797 29.4796 25.2028 30.0002 25.1549C30.5208 25.1071 31.045 25.1899 31.5255 25.3958L42.1306 30.1484C42.7476 30.4219 43.2603 30.8868 43.5926 31.4743C43.9249 32.0617 44.0593 32.7406 43.9759 33.4104V33.4036ZM41.3067 33.0714C41.3142 32.9775 41.292 32.8837 41.2433 32.8031C41.1945 32.7225 41.1217 32.6593 41.035 32.6224L30.4278 27.8698C30.3698 27.8474 30.3077 27.8378 30.2457 27.8417C30.1837 27.8456 30.1233 27.8628 30.0686 27.8922L24.5281 32.6067C24.4877 32.6404 24.445 32.6718 24.4024 32.701C23.9504 33.0023 23.4281 33.1814 22.8863 33.2208C22.3446 33.2601 21.8018 33.1584 21.3111 32.9255C17.1894 30.9342 13.0812 26.864 11.09 22.7804C10.8558 22.2925 10.7515 21.7524 10.7873 21.2124C10.8231 20.6723 10.9977 20.1507 11.2942 19.698C11.3232 19.653 11.3554 19.6102 11.3908 19.57L16.1186 13.9441C16.1456 13.8853 16.1596 13.8214 16.1596 13.7567C16.1596 13.6919 16.1456 13.628 16.1186 13.5692L11.3908 2.98634C11.3596 2.9014 11.3034 2.82788 11.2297 2.7754C11.156 2.72292 11.0682 2.69393 10.9777 2.69225H10.9261C8.64286 2.99597 6.54824 4.12038 5.03336 5.85549C3.51848 7.59061 2.68691 9.8178 2.69393 12.1212C2.69393 28.2132 15.7863 41.306 31.878 41.306C34.1816 41.313 36.409 40.481 38.1442 38.9657C39.8793 37.4503 41.0035 35.3551 41.3067 33.0714Z" fill="#F20530"/>
</svg>
