<svg width="18" height="16" viewBox="0 0 18 16" fill="none" xmlns="http://www.w3.org/2000/svg">
<path d="M14.8871 12.01L14.8871 0.999999C14.8871 0.449999 14.4371 -6.00899e-07 13.8871 -7.21106e-07C13.3371 -8.41312e-07 12.8871 0.449999 12.8871 0.999999L12.8871 12.01L11.0971 12.01C10.6471 12.01 10.4271 12.55 10.7471 12.86L13.5371 15.64C13.7371 15.83 14.0471 15.83 14.2471 15.64L17.0371 12.86C17.3571 12.55 17.1271 12.01 16.6871 12.01L14.8871 12.01Z" fill="#F20530"/>
<path d="M2.2994 3.77223L2.29939 14.7822C2.29939 15.3322 2.74939 15.7822 3.29939 15.7822C3.84939 15.7822 4.29939 15.3322 4.29939 14.7822L4.2994 3.77223L6.0894 3.77223C6.5394 3.77223 6.7594 3.23223 6.4394 2.92223L3.6494 0.142228C3.4494 -0.0477718 3.1394 -0.0477718 2.9394 0.142228L0.149397 2.92223C-0.170603 3.23223 0.0593964 3.77223 0.499396 3.77223L2.2994 3.77223Z" fill="#F20530"/>
</svg>
