<svg width="21" height="17" viewBox="0 0 21 17" fill="none" xmlns="http://www.w3.org/2000/svg">
<path d="M6.59156 17C4.16531 17 1.90363 16.3045 0 15.1046C1.61624 15.2077 4.46855 14.9608 6.24268 13.2931C3.57381 13.1724 2.3702 11.1552 2.2132 10.2931C2.43997 10.3793 3.52148 10.4828 4.132 10.2414C1.06192 9.48276 0.590946 6.82759 0.695608 6.01724C1.27125 6.41379 2.24809 6.55172 2.63185 6.51724C-0.228905 4.5 0.800269 1.46552 1.30613 0.810345C3.35912 3.61336 6.4359 5.18764 10.2423 5.27521C10.1705 4.965 10.1326 4.64205 10.1326 4.31034C10.1326 1.92981 12.0851 0 14.4935 0C15.7519 0 16.8858 0.526818 17.6818 1.36949C18.5227 1.1753 19.7882 0.720702 20.4069 0.327586C20.0951 1.43103 19.1242 2.35154 18.5369 2.69271C18.5321 2.68105 18.5418 2.70432 18.5369 2.69271C19.0528 2.61581 20.4486 2.35145 21 1.98276C20.7273 2.60266 19.698 3.63336 18.8533 4.2104C19.0105 11.0412 13.7074 17 6.59156 17Z" fill="#666666"/>
</svg>
