<svg width="18" height="24" viewBox="0 0 18 24" fill="none" xmlns="http://www.w3.org/2000/svg">
<path d="M9 6.54545C9.53043 6.54545 10.0391 6.31559 10.4142 5.90641C10.7893 5.49724 11 4.94229 11 4.36364C11 3.94909 10.9 3.56727 10.71 3.24L9 0L7.29 3.24C7.1 3.56727 7 3.94909 7 4.36364C7 5.56364 7.9 6.54545 9 6.54545ZM13.6 17.4436L12.53 16.2764L11.45 17.4436C10.15 18.8618 7.87 18.8727 6.56 17.4436L5.49 16.2764L4.4 17.4436C3.75 18.1527 2.88 18.5455 1.96 18.5455C1.23 18.5455 0.56 18.2945 0 17.88V22.9091C0 23.5091 0.45 24 1 24H17C17.55 24 18 23.5091 18 22.9091V17.88C17.44 18.2945 16.77 18.5455 16.04 18.5455C15.12 18.5455 14.25 18.1527 13.6 17.4436ZM15 9.81818H10V7.63636H8V9.81818H3C1.34 9.81818 0 11.28 0 13.0909V14.7709C0 15.9491 0.88 16.9091 1.96 16.9091C2.48 16.9091 2.98 16.6909 3.34 16.2873L5.48 13.9636L7.61 16.2873C8.35 17.0945 9.64 17.0945 10.38 16.2873L12.52 13.9636L14.65 16.2873C15.02 16.6909 15.51 16.9091 16.03 16.9091C17.11 16.9091 17.99 15.9491 17.99 14.7709V13.0909C18 11.28 16.66 9.81818 15 9.81818Z" fill="white"/>
</svg>
