<svg width="20" height="27" viewBox="0 0 20 27" fill="none" xmlns="http://www.w3.org/2000/svg">
<path d="M9.5625 7.36364C10.1261 7.36364 10.6666 7.10503 11.0651 6.64472C11.4636 6.1844 11.6875 5.56008 11.6875 4.90909C11.6875 4.44273 11.5813 4.01318 11.3794 3.645L9.5625 0L7.74563 3.645C7.54375 4.01318 7.4375 4.44273 7.4375 4.90909C7.4375 6.25909 8.39375 7.36364 9.5625 7.36364ZM14.45 19.6241L13.3131 18.3109L12.1656 19.6241C10.7844 21.2195 8.36188 21.2318 6.97 19.6241L5.83313 18.3109L4.675 19.6241C3.98438 20.4218 3.06 20.8636 2.0825 20.8636C1.30688 20.8636 0.595 20.5814 0 20.115V25.7727C0 26.4477 0.478125 27 1.0625 27H18.0625C18.6469 27 19.125 26.4477 19.125 25.7727V20.115C18.53 20.5814 17.8181 20.8636 17.0425 20.8636C16.065 20.8636 15.1406 20.4218 14.45 19.6241ZM15.9375 11.0455H10.625V8.59091H8.5V11.0455H3.1875C1.42375 11.0455 0 12.69 0 14.7273V16.6173C0 17.9427 0.935 19.0227 2.0825 19.0227C2.635 19.0227 3.16625 18.7773 3.54875 18.3232L5.8225 15.7091L8.08563 18.3232C8.87188 19.2314 10.2425 19.2314 11.0288 18.3232L13.3025 15.7091L15.5656 18.3232C15.9588 18.7773 16.4794 19.0227 17.0319 19.0227C18.1794 19.0227 19.1144 17.9427 19.1144 16.6173V14.7273C19.125 12.69 17.7013 11.0455 15.9375 11.0455Z" fill="#F20530"/>
</svg>
