<svg width="18" height="20" viewBox="0 0 18 20" fill="none" xmlns="http://www.w3.org/2000/svg">
<path d="M13.5641 19.4413C13.619 19.0678 13.6684 18.7246 13.7202 18.3818C14.06 16.1362 14.4001 13.8902 14.7404 11.6446C14.7835 11.3602 14.6727 11.1637 14.4438 11.1256C14.203 11.0853 14.0278 11.2405 13.9835 11.5328C13.5934 14.1023 13.2015 16.6717 12.8171 19.2421C12.7937 19.3979 12.7453 19.4473 12.587 19.4454C11.9109 19.437 11.2348 19.4416 10.5384 19.4416C10.5384 19.3523 10.5343 19.2824 10.539 19.2127C10.7042 16.6692 10.8704 14.1257 11.0356 11.5819C11.0527 11.3174 10.9091 11.1334 10.6814 11.1219C10.451 11.1103 10.2867 11.2727 10.2698 11.5328C10.1068 14.062 9.94445 16.5911 9.78144 19.1203C9.77488 19.2202 9.76145 19.3199 9.7499 19.4295H7.90026C7.87591 19.095 7.84968 18.7643 7.82844 18.433C7.69073 16.2889 7.55395 14.1447 7.41686 12.0009C7.40624 11.8339 7.39562 11.6665 7.38094 11.4997C7.3594 11.2518 7.19545 11.105 6.9653 11.1228C6.74983 11.1394 6.60774 11.3068 6.62273 11.5478C6.69205 12.6745 6.76544 13.8009 6.83789 14.9273C6.93064 16.3663 7.02463 17.8053 7.11738 19.2443C7.12113 19.3005 7.11769 19.357 7.11769 19.4413C6.84226 19.4413 6.58244 19.4413 6.32263 19.4413C5.98755 19.4413 5.65248 19.4354 5.31771 19.4445C5.17 19.4485 5.12097 19.3957 5.09943 19.2505C4.87178 17.7094 4.63632 16.1693 4.40273 14.6291C4.24441 13.5855 4.08608 12.5418 3.92651 11.4985C3.88591 11.2343 3.71353 11.0919 3.48244 11.1244C3.2576 11.1559 3.13394 11.3464 3.17422 11.6137C3.54958 14.1045 3.92619 16.5949 4.30218 19.0856C4.31842 19.1924 4.33184 19.2999 4.35121 19.4388C3.89809 19.4388 3.46402 19.4435 3.03026 19.431C2.98998 19.4298 2.93127 19.322 2.91784 19.2561C2.58058 17.6164 2.248 15.9753 1.91542 14.3346C1.72306 13.3859 1.52507 12.4381 1.34395 11.4872C1.29149 11.2115 1.17657 11.0438 0.901138 10.9333C0.230362 10.6641 -0.11908 9.94177 0.0367481 9.23228C0.184456 8.55931 0.814637 8.05623 1.50852 8.05717C2.13308 8.0581 2.67707 8.43659 2.91566 9.05209C2.9956 9.25851 3.11083 9.39216 3.34691 9.37186C3.55458 9.35406 3.63203 9.20386 3.7001 9.03242C4.02706 8.20956 4.92486 7.83233 5.7115 8.19176C6.22207 8.42503 6.50406 8.83662 6.58994 9.38685C6.63397 9.66947 6.76357 9.79688 7.00683 9.79469C7.25447 9.79251 7.38375 9.66666 7.42529 9.38717C7.54177 8.60553 8.15696 8.05654 8.91642 8.05748C9.67714 8.0581 10.2826 8.60022 10.4041 9.38873C10.4435 9.64355 10.6112 9.80125 10.836 9.79438C11.0434 9.78782 11.1739 9.64761 11.2139 9.3881C11.3353 8.59991 11.9446 8.05498 12.7019 8.05779C13.4617 8.0606 14.0694 8.60241 14.194 9.38842C14.2352 9.64823 14.3957 9.80125 14.6205 9.79438C14.826 9.78845 14.9519 9.65198 14.995 9.38842C15.1258 8.58898 15.7422 8.04717 16.5086 8.0581C17.2555 8.06872 17.872 8.62177 17.9853 9.38311C18.0784 10.0074 17.7215 10.6788 17.1125 10.9226C16.8102 11.0438 16.7025 11.2337 16.6432 11.531C16.1307 14.101 15.6039 16.668 15.0889 19.2374C15.0555 19.4035 14.9909 19.4479 14.8323 19.4441C14.4194 19.4345 14.0066 19.441 13.5635 19.441L13.5641 19.4413Z" fill="#888B97"/>
<path d="M14.5872 8.28111C13.6769 7.00232 11.7723 6.93331 10.8083 8.27393C9.85928 6.95548 7.93376 6.97078 6.99911 8.31109C6.55442 7.67966 5.95016 7.32585 5.17914 7.29774C4.41687 7.26995 3.79699 7.58317 3.30015 8.16838C2.81456 7.58192 2.20155 7.29431 1.41211 7.29087C1.55763 7.04917 1.6713 6.83307 1.80995 6.63415C2.71057 5.34193 3.96999 4.53594 5.42241 4.00256C5.76997 3.87484 6.13316 3.79053 6.48728 3.68029C6.5997 3.64532 6.66403 3.66905 6.74148 3.76648C7.94157 5.27979 10.0426 5.27417 11.2658 3.76367C11.3076 3.71183 11.4122 3.66655 11.4728 3.68092C13.131 4.07626 14.6131 4.79575 15.7586 6.09453C16.0677 6.44522 16.3144 6.85118 16.6048 7.25277C15.7373 7.43598 15.0648 7.77865 14.5872 8.2808V8.28111Z" fill="#888B97"/>
<path d="M6.93465 2.04825C6.94433 0.913426 7.86961 -0.00311484 9.00256 7.95623e-06C10.1546 0.00313075 11.0764 0.94403 11.0611 2.10103C11.0461 3.22742 10.1009 4.14521 8.97165 4.1296C7.84026 4.11398 6.92497 3.17902 6.93465 2.04825Z" fill="#888B97"/>
</svg>
