<svg width="18" height="16" viewBox="0 0 18 16" fill="none" xmlns="http://www.w3.org/2000/svg">
<path d="M0.707802 5.49664C1.16102 4.42484 1.81007 3.46243 2.63649 2.63599C3.46292 1.80955 4.42558 1.16049 5.49708 0.707259C6.6069 0.237805 7.78555 0 9.00028 0C10.215 0 11.3939 0.238084 12.5035 0.707259C13.5753 1.16049 14.5376 1.80955 15.3641 2.63599C16.1905 3.46243 16.8395 4.42512 17.2928 5.49664C17.7622 6.60649 18 7.78516 18 8.99992C18 10.2147 17.7619 11.3936 17.2928 12.5032C17.2634 12.5723 17.2334 12.6411 17.2027 12.7091C17.2004 12.7074 17.1985 12.706 17.1962 12.7044C17.072 12.6204 16.9151 12.5818 16.764 12.5955C16.4487 12.6243 16.1606 12.8112 15.9653 13.0437C15.7792 13.2653 15.6363 13.5322 15.4032 13.7138C15.1719 13.8942 14.8742 13.8718 14.593 13.8486C14.2825 13.8229 13.9487 13.7955 13.6704 13.9591C13.397 14.12 13.2734 14.4026 13.1696 14.6798C13.0762 14.9297 12.9872 15.1557 12.7799 15.3297C12.6062 15.4758 12.3524 15.5745 12.1292 15.5935C11.846 15.6176 11.6105 15.5535 11.3769 15.396C11.0949 15.2061 10.8649 14.9638 10.5409 14.8343C10.2279 14.7092 9.88014 14.684 9.54582 14.7229C8.80892 14.8085 8.18141 15.182 7.50019 15.4321C6.94066 15.6375 6.2488 15.762 5.71305 15.4262C5.47134 15.2746 5.32362 15.0292 5.18178 14.7954C5.03015 14.5455 4.8746 14.2851 4.63652 14.101C4.08875 13.6774 3.36164 13.7694 2.71147 13.8346C2.18412 13.8875 1.5429 13.8987 1.18788 13.4729C1.00911 13.1607 0.848522 12.8373 0.707243 12.5029C0.237799 11.3931 0 10.2144 0 8.99964C0 7.78488 0.238079 6.60593 0.707243 5.49636L0.707802 5.49664ZM15.6651 5.74844C15.493 5.74844 15.3655 5.88916 15.3582 6.05534C15.3506 6.22125 15.5045 6.36225 15.6651 6.36225C15.8371 6.36225 15.9647 6.22153 15.972 6.05534C15.9795 5.88944 15.8257 5.74844 15.6651 5.74844ZM15.6919 8.96747C15.6992 9.08218 15.7801 9.16695 15.8965 9.17198C16.0022 9.17674 16.1077 9.07434 16.101 8.96747C16.0853 8.71624 16.0696 8.465 16.0537 8.21405C16.0464 8.09934 15.9656 8.01457 15.8492 8.00954C15.7434 8.00478 15.638 8.10718 15.6447 8.21405C15.6603 8.46528 15.676 8.71652 15.6919 8.96747ZM15.2994 11.8485C15.4715 11.8485 15.5991 11.7078 15.6063 11.5416C15.6139 11.3757 15.46 11.2347 15.2994 11.2347C15.1274 11.2347 14.9998 11.3755 14.9925 11.5416C14.985 11.7075 15.1389 11.8485 15.2994 11.8485ZM14.5942 4.63803C14.7662 4.63803 14.8938 4.4973 14.9011 4.33112C14.9086 4.16522 14.7547 4.02421 14.5942 4.02421C14.4221 4.02421 14.2945 4.16494 14.2873 4.33112C14.2797 4.49702 14.4336 4.63803 14.5942 4.63803ZM13.4969 9.62773C13.669 9.62773 13.7965 9.487 13.8038 9.32082C13.8114 9.15492 13.6575 9.01391 13.4969 9.01391C13.3249 9.01391 13.1973 9.15464 13.19 9.32082C13.1825 9.48672 13.3363 9.62773 13.4969 9.62773ZM6.23454 4.93822C6.06248 4.93822 5.93491 5.07895 5.92763 5.24513C5.92008 5.41103 6.07395 5.55204 6.23454 5.55204C6.40659 5.55204 6.53416 5.41131 6.54144 5.24513C6.54899 5.07923 6.39512 4.93822 6.23454 4.93822ZM8.11371 2.19116C8.03258 2.11003 7.90668 2.11758 7.82443 2.19116C7.63671 2.35902 7.44927 2.5266 7.26155 2.69447C7.17874 2.76832 7.18657 2.90905 7.26155 2.98375C7.34268 3.06488 7.46857 3.05733 7.55082 2.98375C7.73854 2.81589 7.92599 2.6483 8.11371 2.48044C8.19652 2.40658 8.18868 2.26586 8.11371 2.19116ZM9.29095 4.02393C9.1189 4.02393 8.99133 4.16466 8.98405 4.33084C8.9765 4.49674 9.13037 4.63775 9.29095 4.63775C9.46301 4.63775 9.59058 4.49702 9.59785 4.33084C9.60541 4.16494 9.45154 4.02393 9.29095 4.02393ZM10.5972 1.54209C10.4251 1.54209 10.2975 1.68282 10.2903 1.849C10.2827 2.0149 10.4366 2.15591 10.5972 2.15591C10.7692 2.15591 10.8968 2.01518 10.9041 1.849C10.9116 1.6831 10.7578 1.54209 10.5972 1.54209ZM12.0906 2.03197C11.9814 1.99672 11.8726 2.07366 11.8388 2.17493C11.7593 2.41358 11.6796 2.6525 11.6001 2.89114C11.5638 2.99997 11.6421 3.1102 11.7431 3.14294C11.8522 3.17819 11.961 3.10125 11.9949 2.99997C12.0743 2.76133 12.1541 2.52241 12.2335 2.28376C12.2699 2.17493 12.1915 2.0647 12.0906 2.03197ZM13.0448 6.58411C13.0815 6.4708 13.0009 6.37176 12.9019 6.33232C12.668 6.23943 12.4341 6.14627 12.2002 6.05339C12.0936 6.01114 11.9795 6.10039 11.9484 6.19635C11.9118 6.30965 11.9924 6.40869 12.0914 6.44814C12.3253 6.54102 12.5592 6.63419 12.793 6.72707C12.8996 6.76932 13.0138 6.68007 13.0448 6.58411ZM11.9146 12.9729H12.6697C12.7844 12.9729 12.8694 12.8792 12.8742 12.7684C12.8792 12.6579 12.7765 12.5639 12.6697 12.5639H11.9146C11.7999 12.5639 11.7148 12.6576 11.7101 12.7684C11.705 12.8789 11.8077 12.9729 11.9146 12.9729ZM9.63059 13.8858C9.80264 13.8858 9.93021 13.7451 9.93749 13.5789C9.94504 13.413 9.79117 13.272 9.63059 13.272C9.45853 13.272 9.33096 13.4127 9.32369 13.5789C9.31613 13.7448 9.47 13.8858 9.63059 13.8858ZM7.04613 14.2705C7.0534 14.3852 7.13426 14.47 7.25064 14.475C7.35639 14.4798 7.46186 14.3774 7.45514 14.2705C7.43948 14.0193 7.42381 13.768 7.40786 13.5171C7.40059 13.4024 7.31974 13.3176 7.20336 13.3126C7.09761 13.3078 6.99214 13.4102 6.99885 13.5171C7.01452 13.7683 7.03018 14.0196 7.04613 14.2705ZM6.66425 11.336C7.2884 11.9602 8.11819 12.3037 9.00084 12.3037C9.88349 12.3037 10.7133 11.9599 11.3374 11.336C11.9616 10.7118 12.3051 9.88204 12.3051 8.99936C12.3051 8.11669 11.9613 7.28689 11.3374 6.66272C10.7133 6.03856 9.88349 5.695 9.00084 5.695C8.11819 5.695 7.2884 6.03884 6.66425 6.66272C6.0401 7.28689 5.69655 8.11669 5.69655 8.99936C5.69655 9.88204 6.04038 10.7118 6.66425 11.336ZM5.55527 3.0702C5.72732 3.0702 5.8549 2.92947 5.86217 2.76329C5.86972 2.59739 5.71585 2.45638 5.55527 2.45638C5.38321 2.45638 5.25564 2.59711 5.24837 2.76329C5.24081 2.92919 5.39468 3.0702 5.55527 3.0702ZM5.18962 13.0236C5.36167 13.0236 5.48924 12.8829 5.49652 12.7167C5.50407 12.5508 5.3502 12.4098 5.18962 12.4098C5.01756 12.4098 4.88999 12.5505 4.88272 12.7167C4.87516 12.8826 5.02903 13.0236 5.18962 13.0236ZM3.02788 7.12602C3.02033 7.29193 3.1742 7.43293 3.33478 7.43293C3.50684 7.43293 3.63441 7.29221 3.64168 7.12602C3.64924 6.96012 3.49537 6.81912 3.33478 6.81912C3.16273 6.81912 3.03516 6.95984 3.02788 7.12602ZM4.61806 4.76281C4.62337 4.64334 4.5193 4.5706 4.41355 4.55829C4.16372 4.5292 3.91361 4.49982 3.66378 4.47073C3.54992 4.4573 3.46375 4.57508 3.45928 4.67524C3.45396 4.7947 3.55803 4.86744 3.66378 4.87975C3.91361 4.90885 4.16372 4.93822 4.41355 4.96732C4.52742 4.98075 4.61358 4.86296 4.61806 4.76281ZM3.03991 10.779C3.25141 10.6427 3.46292 10.5062 3.67442 10.37C3.77066 10.3078 3.80143 10.1917 3.74771 10.0899C3.69764 9.99507 3.55775 9.95842 3.46767 10.0166C3.25617 10.1529 3.04467 10.2894 2.83317 10.4256C2.73693 10.4877 2.70615 10.6038 2.75987 10.7057C2.80995 10.8005 2.94983 10.8372 3.03991 10.779ZM2.44653 12.8146C2.61859 12.8146 2.74616 12.6739 2.75343 12.5077C2.76099 12.3418 2.60712 12.2008 2.44653 12.2008C2.27448 12.2008 2.14691 12.3415 2.13963 12.5077C2.13208 12.6736 2.28595 12.8146 2.44653 12.8146ZM1.74125 5.47342C1.9133 5.47342 2.04088 5.3327 2.04815 5.16651C2.0557 5.00061 1.90183 4.85961 1.74125 4.85961C1.56919 4.85961 1.44162 5.00033 1.43435 5.16651C1.42679 5.33242 1.58067 5.47342 1.74125 5.47342ZM0.879017 9.78412C1.05107 9.78412 1.17864 9.6434 1.18592 9.47721C1.19347 9.31131 1.0396 9.1703 0.879017 9.1703C0.706963 9.1703 0.57939 9.31103 0.572115 9.47721C0.564562 9.64312 0.718433 9.78412 0.879017 9.78412Z" fill="#888B97"/>
</svg>
