<svg width="33" height="14" viewBox="0 0 33 14" fill="none" xmlns="http://www.w3.org/2000/svg">
<path d="M27.7485 0.921462C28.037 0.994751 28.3159 1.04315 28.5795 1.13626C30.6902 1.8816 31.9679 3.35661 32.4049 5.55115C32.4929 5.99411 32.5289 6.4463 32.4551 6.89756C32.3293 7.66687 31.6208 8.23198 30.8432 8.20571C30.3339 8.18819 29.9412 7.97846 29.6628 7.55209C29.56 7.39491 29.4544 7.23911 29.3512 7.08193C28.8418 6.30525 27.7342 6.47441 27.3567 7.25525C27.3023 7.36726 27.253 7.48572 27.2271 7.60695C27.1018 8.19833 26.7113 8.55141 26.1826 8.77497C25.1183 9.22531 23.9074 8.63577 23.5977 7.52305C23.5405 7.31794 23.4921 7.11005 23.4244 6.90862C23.346 6.67585 23.1916 6.51129 22.9432 6.44998C22.5306 6.34858 22.2393 6.47902 22.0476 6.85746C21.9724 7.00542 21.9083 7.15891 21.8337 7.30687C21.6313 7.70697 21.3068 7.93099 20.8569 7.94758C20.3918 7.9651 20.036 7.76182 19.7848 7.37279C19.7594 7.33361 19.7419 7.28936 19.7226 7.24695C19.464 6.68783 19.0265 6.37946 18.4116 6.36886C17.8009 6.35826 17.3492 6.64127 17.0828 7.19671C17.0127 7.34283 16.9588 7.49816 16.9094 7.65304C16.6094 8.5952 15.6543 9.24928 14.5411 9.14557C14.2457 9.11791 13.9594 9.05891 13.6944 8.91786C13.3763 8.7487 13.1436 8.4938 12.979 8.1799C12.8467 7.92776 12.7388 7.66318 12.6126 7.40782C12.5351 7.2511 12.4521 7.0953 12.3567 6.94918C11.9723 6.36194 11.0536 6.36701 10.6402 6.81689C10.5641 6.89986 10.4918 6.98652 10.4217 7.07456C10.3535 7.16029 10.2866 7.24787 10.2258 7.33868C9.5224 8.39792 8.02389 8.25318 7.32602 7.50554C7.23291 7.40598 7.14902 7.29397 7.07988 7.17689C6.70606 6.54309 6.15477 6.19831 5.42003 6.21122C4.65487 6.22504 4.09022 6.60071 3.75281 7.28797C3.40019 8.0052 2.67882 8.4454 1.88139 8.40437C1.0835 8.36335 0.389785 7.85217 0.126127 7.11097C-0.00846738 6.733 -0.0227564 6.34351 0.0247205 5.95125C0.178675 4.66799 0.670499 3.53684 1.57164 2.59975C2.49582 1.63868 3.6219 1.07311 4.94803 0.911781C4.972 0.909015 4.99689 0.908094 5.02639 0.90625C5.03376 1.01411 5.03284 1.11736 5.04851 1.21877C5.15591 1.91571 5.72702 2.40477 6.43318 2.40477C13.0753 2.40477 19.718 2.40477 26.3601 2.40339C26.4624 2.40339 26.5675 2.39324 26.6676 2.37112C27.2889 2.23284 27.736 1.68386 27.7494 1.04868C27.7503 1.01503 27.7494 0.980923 27.7494 0.921L27.7485 0.921462Z" fill="#F20530"/>
<path d="M30.734 8.56279C30.6538 8.63654 30.5902 8.69969 30.522 8.75777C29.9878 9.21179 29.3664 9.50265 28.7064 9.71745C27.7813 10.0189 26.8285 10.154 25.8573 10.1544C19.4502 10.1563 13.0431 10.1572 6.63652 10.154C5.48325 10.1535 4.35947 9.9705 3.28456 9.53538C2.85911 9.36298 2.45671 9.14726 2.09349 8.86332C2.06445 8.84074 2.03725 8.81631 1.99854 8.78404C2.14511 8.76653 2.27833 8.75731 2.40877 8.7338C2.80195 8.66328 3.15273 8.49872 3.46294 8.24612C3.49475 8.22031 3.54822 8.20233 3.5874 8.20787C4.50098 8.33555 5.4201 8.38671 6.34198 8.39777C6.92461 8.40469 7.5077 8.39547 8.09033 8.40423C8.29268 8.40699 8.49411 8.45539 8.69646 8.45724C8.88914 8.45862 9.08227 8.42635 9.27495 8.40884C9.31228 8.40561 9.34962 8.40192 9.38741 8.40192C10.4559 8.40192 11.5243 8.40192 12.5923 8.40008C12.6629 8.40008 12.7039 8.41944 12.7421 8.48166C13.1515 9.14772 13.7654 9.45932 14.5301 9.51187C15.4345 9.57409 16.1964 9.27587 16.7887 8.59045C16.9169 8.44202 17.0367 8.39777 17.2206 8.39823C19.323 8.40377 21.4249 8.40238 23.5272 8.40008C23.607 8.40008 23.6563 8.42451 23.7088 8.48489C24.6842 9.60682 26.3371 9.52984 27.2558 8.42174C27.2811 8.39086 27.3309 8.36597 27.371 8.36366C28.1127 8.31665 28.8493 8.22999 29.5812 8.10139C29.6084 8.09678 29.6453 8.10093 29.6665 8.11614C30.1297 8.45862 30.1814 8.4812 30.734 8.56371V8.56279Z" fill="#F20530"/>
<path d="M0.907715 8.53018C1.09071 8.59471 1.27001 8.65648 1.44794 8.72147C1.46776 8.72885 1.48435 8.7542 1.49449 8.7754C2.01121 9.83833 2.85657 10.5551 3.90613 11.0506C4.79898 11.4719 5.74529 11.659 6.73032 11.659C13.0687 11.659 19.4067 11.659 25.745 11.659C26.9748 11.659 28.1295 11.3751 29.1818 10.727C29.9723 10.2403 30.6071 9.60279 30.9961 8.7482C31.0606 8.6067 31.1302 8.52834 31.2874 8.51773C31.3851 8.51128 31.481 8.47302 31.587 8.44629C31.5824 8.47717 31.5801 8.50391 31.5741 8.53018C31.0671 10.7916 29.2454 12.533 26.9624 12.9234C26.6397 12.9787 26.3083 13.0036 25.9806 13.0036C19.4859 13.0082 12.9908 13.0078 6.49616 13.0064C3.84898 13.0059 1.55626 11.1999 0.927535 8.62606C0.919699 8.59333 0.914168 8.56014 0.908176 8.52972L0.907715 8.53018Z" fill="#F20530"/>
<path d="M16.3957 2.04501C13.0654 2.04501 9.73511 2.04501 6.40435 2.04501C5.89132 2.04501 5.45665 1.65966 5.39857 1.1577C5.33681 0.624389 5.66408 0.145933 6.17526 0.0288539C6.26284 0.00857254 6.35503 0.00119721 6.44537 0.00119721C13.0746 -0.000185616 19.7043 -0.000185109 26.3336 0.000275832C26.8498 0.000275832 27.2522 0.31141 27.3633 0.792172C27.4707 1.2568 27.2481 1.72973 26.8213 1.94222C26.6728 2.01597 26.5147 2.04593 26.3488 2.04593C23.3725 2.04501 20.3962 2.04547 17.4199 2.04547C17.0784 2.04547 16.7368 2.04547 16.3952 2.04547L16.3957 2.04501ZM18.8308 0.962259C20.4815 0.962259 22.1326 0.962259 23.7832 0.962259C23.8178 0.962259 23.8523 0.963181 23.8864 0.959955C24.0538 0.943361 24.1681 0.797703 24.146 0.630843C24.1238 0.46306 24.0003 0.373177 23.7901 0.373177C20.4856 0.373177 17.1807 0.373177 13.8762 0.373177C13.8449 0.373177 13.8135 0.372254 13.7822 0.375481C13.6231 0.392536 13.5093 0.524365 13.5148 0.684312C13.5199 0.833657 13.6384 0.951657 13.7937 0.960876C13.8343 0.963181 13.8753 0.962259 13.9158 0.962259C15.554 0.962259 17.1922 0.962259 18.8304 0.962259H18.8308ZM25.7758 0.962259C25.8699 0.962259 25.9634 0.962259 26.0575 0.962259C26.1543 0.962259 26.2515 0.963181 26.3483 0.962259C26.5346 0.960415 26.6613 0.844259 26.6632 0.674632C26.6645 0.499475 26.5364 0.374099 26.3506 0.373177C25.969 0.371794 25.5873 0.371794 25.2052 0.373177C25.0176 0.373638 24.8899 0.497631 24.8904 0.672788C24.8904 0.842414 25.0181 0.960876 25.2029 0.962259C25.3937 0.963181 25.5846 0.962259 25.7754 0.962259H25.7758Z" fill="#F20530"/>
</svg>
