<svg width="18" height="18" viewBox="0 0 18 18" fill="none" xmlns="http://www.w3.org/2000/svg">
<path d="M12.75 16.13C11.92 16.13 11.25 15.29 11.25 14.25C11.25 13.22 11.92 12.38 12.75 12.38C13.58 12.38 14.25 13.22 14.25 14.25C14.25 15.29 13.58 16.13 12.75 16.13ZM9.00001 8.25C7.76001 8.25 6.75001 7.41 6.75001 6.38C6.75001 5.34 7.76001 4.5 9.00001 4.5C10.24 4.5 11.25 5.34 11.25 6.38C11.25 7.41 10.24 8.25 9.00001 8.25ZM5.25001 16.13C4.42001 16.13 3.75001 15.29 3.75001 14.25C3.75001 13.22 4.42001 12.38 5.25001 12.38C6.08001 12.38 6.75001 13.22 6.75001 14.25C6.75001 15.29 6.08001 16.13 5.25001 16.13ZM9.00001 5.25C9.41001 5.25 9.75001 5.59 9.75001 6C9.75001 6.41 9.41001 6.75 9.00001 6.75C8.59001 6.75 8.25001 6.41 8.25001 6C8.25001 5.59 8.59001 5.25 9.00001 5.25ZM15.75 9C15.43 9 15.12 9.07 14.84 9.2C14.36 8.59 13.71 8.07 12.93 7.67C13.5 6.87 13.84 5.9 13.84 4.85V4.79C14.93 4.56 15.75 3.59 15.75 2.42C15.75 1.09 14.66 0 13.33 0C12.64 0 12 0.29 11.58 0.75C10.8086 0.260185 9.91376 7.39098e-05 9.00001 7.39098e-05C8.08626 7.39098e-05 7.19138 0.260185 6.42001 0.75C6.00001 0.29 5.36001 0 4.67001 0C3.34001 0 2.25001 1.09 2.25001 2.42C2.25001 3.58 3.07001 4.55 4.15001 4.79V4.85C4.15001 5.9 4.50001 6.88 5.06001 7.67C4.29001 8.07 3.64001 8.59 3.16001 9.2C2.81828 9.04606 2.44338 8.98033 2.06965 9.00883C1.69593 9.03734 1.33534 9.15916 1.0209 9.36315C0.706462 9.56713 0.448236 9.84676 0.269879 10.1764C0.0915209 10.5061 -0.00126767 10.8752 1.30808e-05 11.25C1.30808e-05 12.5 1.00001 13.5 2.25001 13.5H2.31001C2.27001 13.74 2.25001 14 2.25001 14.25C2.25001 16.32 3.59001 18 5.25001 18C6.26001 18 7.15001 17.37 7.70001 16.41C8.12001 16.47 8.55001 16.5 9.00001 16.5C9.45001 16.5 9.88001 16.47 10.3 16.41C10.85 17.37 11.74 18 12.75 18C14.41 18 15.75 16.32 15.75 14.25C15.75 14 15.73 13.74 15.69 13.5H15.75C17 13.5 18 12.5 18 11.25C18 10 17 9 15.75 9Z" fill="#888B97"/>
</svg>
