<svg width="20" height="19" viewBox="0 0 20 19" fill="none" xmlns="http://www.w3.org/2000/svg">
<path d="M18.5083 4.15134C18.5083 4.26721 18.5114 4.38308 18.5079 4.49852C18.4996 4.75804 18.4992 4.99933 18.6997 5.22109C18.8091 5.34173 18.8611 5.55265 18.8633 5.72363C18.8659 5.96319 18.9067 6.18191 18.9731 6.41105C19.0864 6.80293 18.9228 7.13753 18.6489 7.41137C18.5404 7.51986 18.5027 7.62488 18.5057 7.772C18.514 8.1769 18.5179 8.58267 18.5031 8.98713C18.4983 9.11646 18.4589 9.26184 18.3885 9.3686C17.9342 10.0552 17.291 10.5356 16.5862 10.9305C16.1401 11.1805 15.671 11.3914 15.201 11.5949C14.9888 11.6869 14.8217 11.7776 14.7223 12.0106C14.6464 12.189 14.5865 12.3136 14.6802 12.518C14.859 12.9077 14.7115 13.2601 14.458 13.5812C14.3934 13.6632 14.3443 13.78 14.34 13.8833C14.3257 14.2369 14.3244 14.5924 14.3382 14.9465C14.3461 15.1457 14.2766 15.2854 14.1351 15.42C13.3171 16.1972 12.391 16.8287 11.4198 17.3894C10.5132 17.9127 9.58186 18.3927 8.65576 18.8814C8.54249 18.9412 8.3893 18.9734 8.26388 18.9547C6.48501 18.6921 4.74476 18.2868 3.11865 17.4883C2.24897 17.0613 1.44741 16.5405 0.823786 15.7789C0.642384 15.5575 0.54257 15.3254 0.562099 15.0281C0.585967 14.6679 0.57208 14.3051 0.563401 13.9436C0.561665 13.8789 0.522173 13.79 0.470964 13.7548C0.0322135 13.4545 -0.0962434 13.1399 0.0699696 12.6395C0.150255 12.3982 0.182369 12.1634 0.198427 11.91C0.213616 11.6739 0.364639 11.4465 0.454472 11.2152C0.493964 11.1136 0.559061 11.0112 0.562099 10.9079C0.574684 10.4961 0.554287 10.0829 0.574684 9.67152C0.581628 9.53438 0.641516 9.37207 0.732651 9.27096C1.78114 8.10746 3.04358 7.24646 4.49479 6.66319C4.64191 6.60417 4.70918 6.50956 4.78209 6.37547C4.87322 6.20708 4.79076 6.11334 4.71308 5.99487C4.42362 5.55482 4.46094 5.03057 4.98736 4.79058C5.03249 4.77019 5.06677 4.67818 5.06851 4.61829C5.07632 4.30757 5.0837 3.99554 5.06851 3.68525C5.05766 3.46262 5.12666 3.27948 5.24601 3.09851C5.63702 2.50613 6.16343 2.05827 6.75668 1.68765C8.08421 0.858324 9.5376 0.335383 11.0665 0.0519962C11.7782 -0.0799326 12.5095 0.0624116 13.2168 0.220379C15.2539 0.676054 16.9564 1.7189 18.3925 3.21482C18.4584 3.28338 18.4953 3.40186 18.5031 3.50037C18.5196 3.71606 18.5083 3.93391 18.5083 4.1509V4.15134ZM13.768 9.50834C13.4833 9.0557 13.1314 8.71633 12.7325 8.42514C11.6554 7.63877 10.4268 7.18396 9.16872 6.78644C8.39841 6.54298 7.63114 6.4436 6.82351 6.56381C5.44911 6.76821 4.18927 7.2534 3.02491 7.99984C2.34791 8.43382 1.72299 8.93289 1.25603 9.40939C1.45869 9.67369 1.61753 9.96749 1.85448 10.1693C2.22466 10.4848 2.63868 10.7526 3.05095 11.0142C3.5548 11.3345 4.05691 11.6674 4.59461 11.9217C5.15921 12.1886 5.7568 12.3965 6.35525 12.5792C6.96846 12.7658 7.59946 12.8955 8.22569 13.0379C8.33809 13.0635 8.47436 13.0539 8.58242 13.014C8.8389 12.9194 9.08539 12.7974 9.3358 12.6855C10.4181 12.2007 11.3946 11.5476 12.3033 10.7925C12.8015 10.378 13.2793 9.93884 13.7684 9.50921L13.768 9.50834ZM17.9081 3.4982C17.8699 3.45307 17.8487 3.42356 17.8235 3.39839C16.3918 1.97842 14.7149 1.00935 12.7152 0.653921C12.1336 0.550635 11.5374 0.440839 10.9524 0.601844C10.2159 0.804511 9.48118 1.02237 8.76425 1.28362C7.85854 1.61388 6.99884 2.04699 6.2754 2.70099C6.03324 2.91971 5.82884 3.1801 5.56151 3.47173C6.35482 4.10794 7.08173 4.7333 7.85464 5.29573C8.37107 5.67156 8.93784 5.98619 9.50939 6.27435C9.93165 6.48743 10.3951 6.6211 10.8452 6.77516C10.9749 6.81942 11.1281 6.84633 11.2609 6.82333C12.973 6.52736 14.5722 5.9289 16.0446 5.00323C16.719 4.57924 17.3483 4.09752 17.9081 3.49777V3.4982ZM0.602893 12.7467C0.452303 13.06 0.524777 13.2353 0.825088 13.3464C0.90928 13.3777 1.00649 13.4215 1.05683 13.4901C1.60017 14.227 2.3184 14.7586 3.09131 15.2221C4.6328 16.1464 6.31793 16.6902 8.06425 17.0643C8.38496 17.1329 8.60238 16.9675 8.61844 16.6381C8.62798 16.4407 8.50994 16.3005 8.31726 16.2619C7.77218 16.1534 7.22841 16.0401 6.6842 15.9277C6.50888 15.8917 6.40385 15.7836 6.44769 15.6053C6.49108 15.4286 6.63082 15.3766 6.80528 15.4273C6.86083 15.4434 6.91638 15.4599 6.9728 15.4716C7.42544 15.5636 7.8772 15.6591 8.33158 15.7411C8.39841 15.7533 8.52079 15.7181 8.54292 15.6704C8.64664 15.4469 8.35284 14.9265 8.11199 14.8736C7.13207 14.6583 6.1439 14.4743 5.17483 14.2179C3.51618 13.7791 2.03892 13.0071 0.884543 11.6973C0.864146 11.6743 0.832032 11.6617 0.802956 11.6431C0.665385 11.9616 0.69316 12.1122 0.917959 12.3314C1.81759 13.2097 2.85132 13.8872 3.99876 14.3953C4.20446 14.4865 4.27694 14.6336 4.19318 14.7833C4.09076 14.9652 3.94451 14.9365 3.7822 14.8623C2.81053 14.4175 1.9135 13.8559 1.09459 13.1694C0.930111 13.0314 0.768671 12.8895 0.602458 12.7467H0.602893ZM14.1816 12.7784C14.1095 12.8456 14.0618 12.8855 14.0193 12.9307C13.3384 13.645 12.5442 14.2035 11.6663 14.6484C11.5131 14.726 11.3859 14.7148 11.2909 14.5676C11.2041 14.434 11.2592 14.289 11.4263 14.1914C11.4883 14.1549 11.5543 14.1245 11.6181 14.0907C12.5876 13.5756 13.4351 12.9103 14.1182 12.0467C14.2193 11.9191 14.3001 11.7672 14.3526 11.6136C14.3725 11.5545 14.3057 11.4356 14.2441 11.3896C14.2033 11.3588 14.0935 11.3931 14.0297 11.4274C13.955 11.4673 13.8982 11.5389 13.8322 11.5953C12.3975 12.8165 10.797 13.7791 9.11404 14.6128C9.00598 14.6661 8.89748 14.7195 8.79376 14.7703C8.7994 14.8033 8.79854 14.8189 8.80505 14.8306C9.00207 15.1978 9.13704 15.5714 8.94349 15.9859C8.9309 16.0128 8.94175 16.0549 8.95216 16.0866C9.02464 16.3127 9.09972 16.5383 9.17653 16.7709C9.16177 16.7748 9.18304 16.7722 9.2017 16.7636C11.0101 15.9112 12.6549 14.8298 14.0032 13.3338C14.1312 13.1919 14.2219 13.0288 14.1811 12.7784H14.1816ZM18.2666 5.56393C16.9729 7.06245 15.2652 7.81193 13.3505 8.26326C13.5232 8.43078 13.6743 8.55533 13.7988 8.70245C14.0809 9.03574 14.4086 9.35298 14.3448 9.85335C14.3439 9.86073 14.3634 9.87028 14.3829 9.88764C15.3294 9.49619 16.2451 9.03357 17.0332 8.36525C17.4928 7.97554 17.9016 7.5242 18.3208 7.08849C18.4133 6.99215 18.4523 6.84459 18.5161 6.72091C18.1355 6.97696 17.8022 7.26295 17.4529 7.52811C16.7998 8.02327 16.0902 8.4247 15.3433 8.7606C15.194 8.82787 15.0656 8.8053 14.9896 8.66382C14.9081 8.51236 14.9632 8.38304 15.1133 8.30015C15.1828 8.26196 15.2565 8.23115 15.3286 8.19773C16.4061 7.69649 17.3752 7.03685 18.2254 6.20491C18.4115 6.02264 18.4289 5.82345 18.267 5.56436L18.2666 5.56393ZM5.22214 5.2532C5.00819 5.37385 4.96783 5.455 5.08934 5.64812C5.2191 5.85426 5.38184 6.04044 5.5372 6.22922C5.56151 6.25873 5.62747 6.27478 5.6674 6.2661C5.86138 6.22444 6.05277 6.17236 6.27062 6.11768C5.90999 5.81998 5.57236 5.54136 5.22214 5.25277V5.2532Z" fill="#888B97"/>
<path d="M13.7673 9.50814C13.2782 9.93778 12.8008 10.3774 12.3022 10.7914C11.3934 11.5465 10.4174 12.1997 9.33466 12.6844C9.08469 12.7964 8.83775 12.9183 8.58127 13.0129C8.47321 13.0529 8.33694 13.0624 8.22454 13.0368C7.59832 12.8949 6.96731 12.7651 6.35411 12.5781C5.75522 12.3958 5.15807 12.1879 4.59346 11.9206C4.05577 11.6667 3.55366 11.3334 3.04981 11.0132C2.63797 10.7515 2.22352 10.4837 1.85334 10.1682C1.61639 9.96642 1.45798 9.67262 1.25488 9.40833C1.72184 8.93182 2.34677 8.43275 3.02377 7.99877C4.18856 7.25233 5.4484 6.76715 6.82237 6.56274C7.63 6.44253 8.3977 6.54191 9.16757 6.78537C10.4257 7.1829 11.6543 7.6377 12.7314 8.42407C13.1302 8.71527 13.4822 9.05464 13.7669 9.50727L13.7673 9.50814ZM8.41853 7.34954C8.3721 7.35215 8.307 7.35301 8.24234 7.35909C7.93031 7.38773 7.64692 7.48885 7.52671 7.80088C7.40433 8.11681 7.52541 8.39282 7.75151 8.63064C8.15164 9.05116 8.66286 9.21087 9.21878 9.22389C9.55859 9.2317 9.86497 9.10454 10.0138 8.76214C10.1336 8.48656 10.0108 8.14285 9.71525 7.87379C9.35332 7.5444 8.92368 7.37862 8.41853 7.34954ZM4.72973 9.01731C4.67939 9.01731 4.62862 9.01471 4.57827 9.01731C4.28143 9.03467 4.04231 9.15749 3.9221 9.4374C3.80363 9.71385 3.92731 9.95123 4.11218 10.1483C4.47803 10.5384 4.93847 10.7267 5.47183 10.7029C5.7652 10.6894 6.03209 10.5883 6.15144 10.285C6.27469 9.97163 6.13885 9.71558 5.92273 9.50293C5.59465 9.18005 5.18801 9.02947 4.73017 9.01688L4.72973 9.01731ZM8.58605 10.101C8.04618 10.101 7.7476 10.2654 7.65039 10.5488C7.55709 10.8201 7.68424 11.1455 8.00018 11.3942C8.34519 11.6659 8.74098 11.8113 9.18363 11.7935C9.49436 11.7809 9.77254 11.6845 9.89622 11.363C10.0212 11.0379 9.86975 10.7827 9.64234 10.5723C9.31296 10.2676 8.91587 10.1131 8.58648 10.1001L8.58605 10.101Z" fill="#888B97"/>
<path d="M17.9082 3.49799C17.3483 4.09774 16.7191 4.57945 16.0447 5.00345C14.5717 5.92912 12.9725 6.52758 11.2609 6.82355C11.1286 6.84655 10.9749 6.81964 10.8452 6.77538C10.3952 6.62131 9.93167 6.48765 9.50941 6.27457C8.93786 5.98597 8.37109 5.67134 7.85465 5.29595C7.08174 4.73352 6.35483 4.10816 5.56152 3.47195C5.82885 3.18032 6.03326 2.91993 6.27541 2.70121C6.99885 2.04677 7.85856 1.61366 8.76427 1.28384C9.4812 1.02258 10.2159 0.804728 10.9524 0.602061C11.5374 0.441056 12.1337 0.550852 12.7152 0.654138C14.7154 1.00957 16.3923 1.97863 17.8235 3.39861C17.8487 3.42378 17.87 3.45285 17.9082 3.49842V3.49799ZM12.8306 1.33375C12.7451 1.34329 12.6223 1.35067 12.5017 1.3715C11.859 1.4826 11.5947 2.1149 11.9635 2.65347C12.4127 3.30834 13.4573 3.71584 14.2254 3.53574C14.8126 3.39817 15.0643 2.82619 14.7536 2.31019C14.6655 2.16438 14.5483 2.02767 14.4185 1.91744C13.9737 1.53945 13.4508 1.35501 12.8306 1.33375ZM11.017 3.84517C10.9333 3.85602 10.8244 3.86209 10.7193 3.88466C10.0584 4.02613 9.83359 4.59378 10.2537 5.12236C10.4199 5.3311 10.6464 5.51033 10.8795 5.64313C11.3382 5.90438 11.8403 6.01114 12.3611 5.84406C12.8345 5.69217 13.0103 5.23823 12.7751 4.79991C12.7143 4.68708 12.6358 4.57728 12.5438 4.48832C12.1263 4.08472 11.619 3.88422 11.0175 3.84517H11.017ZM8.63711 4.3195C8.92658 4.33426 9.18957 4.19235 9.29285 3.95193C9.40612 3.68937 9.30197 3.46587 9.12143 3.28404C8.78119 2.94163 8.36111 2.79711 7.88026 2.86004C7.65112 2.88998 7.46408 3.0102 7.39507 3.23717C7.32347 3.47195 7.37511 3.69284 7.56432 3.86947C7.86681 4.15199 8.22614 4.29607 8.63668 4.3195H8.63711Z" fill="#888B97"/>
</svg>
